<svg aria-hidden="true" style="position: absolute; width: 0; height: 0; overflow: hidden;" version="1.1" xmlns="http://www.w3.org/2000/svg" xmlns:xlink="http://www.w3.org/1999/xlink">
<defs>
<symbol id="icon-Vector-5" viewBox="0 0 32 32">
<path fill="none" stroke="#fff" style="stroke: var(--color1, #fff)" stroke-linejoin="round" stroke-linecap="round" stroke-miterlimit="4" stroke-width="2" d="M24.25 7.75h0.015M8.5 1h15c4.142 0 7.5 3.358 7.5 7.5v15c0 4.142-3.358 7.5-7.5 7.5h-15c-4.142 0-7.5-3.358-7.5-7.5v-15c0-4.142 3.358-7.5 7.5-7.5zM22 15.055c0.185 1.248-0.028 2.523-0.609 3.643s-1.501 2.029-2.628 2.596c-1.127 0.567-2.405 0.765-3.651 0.564s-2.397-0.789-3.289-1.681c-0.892-0.892-1.481-2.043-1.681-3.289s-0.003-2.524 0.564-3.651c0.567-1.127 1.476-2.047 2.596-2.628s2.395-0.795 3.644-0.609c1.273 0.189 2.452 0.782 3.363 1.692s1.504 2.089 1.692 3.363z"></path>
</symbol>
<symbol id="icon-Vector-4" viewBox="0 0 17 32">
<path fill="none" stroke="#fff" style="stroke: var(--color1, #fff)" stroke-linejoin="round" stroke-linecap="round" stroke-miterlimit="4" stroke-width="2" d="M16 1h-4.091c-1.808 0-3.543 0.79-4.821 2.197s-1.997 3.314-1.997 5.303v4.5h-4.091v6h4.091v12h5.455v-12h4.091l1.364-6h-5.454v-4.5c0-0.398 0.144-0.779 0.399-1.061s0.603-0.439 0.964-0.439h4.091v-6z"></path>
</symbol>
<symbol id="icon-Vector-3" viewBox="0 0 44 32">
<path fill="none" stroke="#fff" style="stroke: var(--color1, #fff)" stroke-linejoin="round" stroke-linecap="round" stroke-miterlimit="4" stroke-width="2.3704" d="M42.667 1.202c-1.806 1.115-3.805 1.968-5.921 2.526-1.136-1.143-2.645-1.954-4.323-2.322s-3.446-0.275-5.063 0.265c-1.617 0.54-3.005 1.503-3.977 2.756s-1.481 2.739-1.457 4.254v1.651c-3.314 0.075-6.597-0.568-9.558-1.873s-5.507-3.231-7.412-5.607c0 0-7.542 14.861 9.428 21.466-3.883 2.308-8.509 3.466-13.199 3.303 16.97 8.256 37.71 0 37.71-18.989-0.002-0.46-0.052-0.919-0.151-1.371 1.924-1.662 3.282-3.76 3.922-6.060z"></path>
</symbol>
<symbol id="icon-Vector-2" viewBox="0 0 42 32">
<path fill="none" stroke="#fff" style="stroke: var(--color1, #fff)" stroke-linejoin="round" stroke-linecap="round" stroke-miterlimit="4" stroke-width="2" d="M40.163 5.696c-0.216-0.921-0.656-1.765-1.275-2.446s-1.396-1.176-2.252-1.435c-3.127-0.815-15.636-0.815-15.636-0.815s-12.508 0-15.636 0.893c-0.856 0.258-1.633 0.753-2.252 1.435s-1.059 1.525-1.275 2.446c-0.572 3.387-0.852 6.823-0.836 10.265-0.020 3.468 0.26 6.93 0.836 10.343 0.238 0.892 0.688 1.704 1.306 2.357s1.383 1.124 2.221 1.369c3.127 0.893 15.636 0.893 15.636 0.893s12.508 0 15.636-0.893c0.856-0.259 1.633-0.753 2.252-1.435s1.059-1.525 1.275-2.446c0.568-3.362 0.848-6.772 0.836-10.188 0.020-3.468-0.26-6.93-0.836-10.343z"></path>
<path fill="none" stroke="#fff" style="stroke: var(--color1, #fff)" stroke-linejoin="round" stroke-linecap="round" stroke-miterlimit="4" stroke-width="2" d="M16.909 22.384l10.454-6.345-10.454-6.345v12.691z"></path>
</symbol>
<symbol id="icon-Rectangle-40-1" viewBox="0 0 24 32">
<path fill="none" stroke="#33e9e9" style="stroke: var(--color2, #33e9e9)" stroke-linejoin="miter" stroke-linecap="butt" stroke-miterlimit="4" stroke-width="0.4601" d="M0.352 0.352h22.99v31.296h-22.99v-31.296z"></path>
</symbol>
<symbol id="icon-Group-3" viewBox="0 0 32 32">
<path fill="none" stroke="#00a8a8" style="stroke: var(--color3, #00a8a8)" stroke-linejoin="round" stroke-linecap="round" stroke-miterlimit="4" stroke-width="0.8238" d="M14.502 18.933c1.626 0.748 3.55 0.036 4.298-1.59s0.036-3.55-1.59-4.298c-1.626-0.748-3.55-0.036-4.298 1.59s-0.036 3.55 1.59 4.298z"></path>
<path fill="none" stroke="#00a8a8" style="stroke: var(--color3, #00a8a8)" stroke-linejoin="round" stroke-linecap="round" stroke-miterlimit="4" stroke-width="0.8238" d="M21.764 22.272c-0.267 0.236-0.457 0.546-0.545 0.891s-0.072 0.708 0.048 1.044l0.032 0.086c0.099 0.266 0.144 0.549 0.133 0.833s-0.077 0.562-0.196 0.82c-0.119 0.258-0.287 0.49-0.495 0.683s-0.453 0.343-0.719 0.441c-0.266 0.099-0.549 0.144-0.833 0.133s-0.562-0.077-0.82-0.196c-0.258-0.119-0.49-0.287-0.683-0.495s-0.343-0.453-0.441-0.719l-0.032-0.086c-0.127-0.333-0.351-0.619-0.643-0.824s-0.638-0.316-0.994-0.322c-0.347-0.009-0.69 0.084-0.985 0.267s-0.531 0.449-0.677 0.764l-0.077 0.167c-0.239 0.521-0.676 0.925-1.213 1.123s-1.132 0.176-1.652-0.063c-0.521-0.239-0.925-0.676-1.123-1.213s-0.176-1.132 0.063-1.652l0.041-0.088c0.142-0.328 0.181-0.692 0.114-1.043s-0.239-0.674-0.492-0.926c-0.236-0.267-0.546-0.457-0.891-0.545s-0.708-0.072-1.044 0.048l-0.086 0.032c-0.266 0.099-0.549 0.144-0.833 0.133s-0.562-0.077-0.82-0.196c-0.258-0.119-0.49-0.287-0.683-0.495s-0.343-0.453-0.441-0.719c-0.099-0.266-0.144-0.549-0.133-0.833s0.077-0.562 0.196-0.82c0.119-0.258 0.287-0.49 0.495-0.683s0.453-0.343 0.719-0.441l0.086-0.032c0.333-0.127 0.619-0.351 0.824-0.643s0.316-0.638 0.322-0.994c0.009-0.347-0.084-0.69-0.267-0.985s-0.449-0.531-0.764-0.677l-0.167-0.077c-0.521-0.239-0.925-0.676-1.123-1.213s-0.176-1.132 0.063-1.652c0.239-0.521 0.676-0.925 1.213-1.123s1.132-0.176 1.652 0.063l0.088 0.041c0.328 0.142 0.692 0.181 1.043 0.114s0.674-0.239 0.926-0.492c0.267-0.236 0.457-0.546 0.545-0.891s0.072-0.708-0.048-1.044l-0.032-0.086c-0.099-0.266-0.144-0.549-0.133-0.833s0.077-0.562 0.196-0.82c0.119-0.258 0.287-0.49 0.495-0.683s0.453-0.343 0.719-0.441c0.266-0.099 0.549-0.144 0.833-0.133s0.562 0.077 0.82 0.196c0.258 0.119 0.49 0.287 0.683 0.495s0.343 0.453 0.441 0.719l0.032 0.086c0.127 0.333 0.351 0.619 0.643 0.824s0.638 0.316 0.994 0.322l0.078 0.036c0.347 0.009 0.69-0.084 0.985-0.267s0.531-0.449 0.677-0.764l0.077-0.167c0.239-0.521 0.676-0.925 1.213-1.123s1.132-0.176 1.652 0.063c0.521 0.239 0.925 0.676 1.123 1.213s0.176 1.132-0.063 1.652l-0.041 0.088c-0.144 0.316-0.192 0.668-0.139 1.011s0.206 0.664 0.439 0.922c0.236 0.267 0.546 0.457 0.891 0.545s0.708 0.072 1.044-0.048l0.086-0.032c0.266-0.099 0.549-0.144 0.833-0.133s0.562 0.077 0.82 0.196c0.258 0.119 0.49 0.287 0.683 0.495s0.343 0.453 0.441 0.719c0.099 0.266 0.144 0.549 0.133 0.833s-0.077 0.562-0.196 0.82c-0.119 0.258-0.287 0.49-0.495 0.683s-0.453 0.343-0.719 0.441l-0.086 0.032c-0.333 0.127-0.619 0.351-0.824 0.643s-0.316 0.638-0.322 0.994l-0.036 0.078c-0.009 0.347 0.084 0.69 0.267 0.985s0.449 0.531 0.764 0.677l0.167 0.077c0.521 0.239 0.925 0.676 1.123 1.213s0.176 1.132-0.063 1.652c-0.239 0.521-0.676 0.925-1.213 1.123s-1.132 0.176-1.652-0.063l-0.088-0.041c-0.316-0.144-0.668-0.192-1.011-0.139s-0.664 0.206-0.922 0.439z"></path>
<path fill="none" stroke="#00a8a8" style="stroke: var(--color3, #00a8a8)" stroke-linejoin="round" stroke-linecap="round" stroke-miterlimit="4" stroke-width="1.0772" d="M14.502 18.933c1.626 0.748 3.55 0.036 4.298-1.59s0.036-3.55-1.59-4.298c-1.626-0.748-3.55-0.036-4.298 1.59s-0.036 3.55 1.59 4.298z"></path>
<path fill="none" stroke="#00a8a8" style="stroke: var(--color3, #00a8a8)" stroke-linejoin="round" stroke-linecap="round" stroke-miterlimit="4" stroke-width="1.0772" d="M21.764 22.272c-0.267 0.236-0.457 0.546-0.545 0.891s-0.072 0.708 0.048 1.044l0.032 0.086c0.099 0.266 0.144 0.549 0.133 0.833s-0.077 0.562-0.196 0.82c-0.119 0.258-0.287 0.49-0.495 0.683s-0.453 0.343-0.719 0.441c-0.266 0.099-0.549 0.144-0.833 0.133s-0.562-0.077-0.82-0.196c-0.258-0.119-0.49-0.287-0.683-0.495s-0.343-0.453-0.441-0.719l-0.032-0.086c-0.127-0.333-0.351-0.619-0.643-0.824s-0.638-0.316-0.994-0.322c-0.347-0.009-0.69 0.084-0.985 0.267s-0.531 0.449-0.677 0.764l-0.077 0.167c-0.239 0.521-0.676 0.925-1.213 1.123s-1.132 0.176-1.652-0.063c-0.521-0.239-0.925-0.676-1.123-1.213s-0.176-1.132 0.063-1.652l0.041-0.088c0.142-0.328 0.181-0.692 0.114-1.043s-0.239-0.674-0.492-0.926c-0.236-0.267-0.546-0.457-0.891-0.545s-0.708-0.072-1.044 0.048l-0.086 0.032c-0.266 0.099-0.549 0.144-0.833 0.133s-0.562-0.077-0.82-0.196c-0.258-0.119-0.49-0.287-0.683-0.495s-0.343-0.453-0.441-0.719c-0.099-0.266-0.144-0.549-0.133-0.833s0.077-0.562 0.196-0.82c0.119-0.258 0.287-0.49 0.495-0.683s0.453-0.343 0.719-0.441l0.086-0.032c0.333-0.127 0.619-0.351 0.824-0.643s0.316-0.638 0.322-0.994c0.009-0.347-0.084-0.69-0.267-0.985s-0.449-0.531-0.764-0.677l-0.167-0.077c-0.521-0.239-0.925-0.676-1.123-1.213s-0.176-1.132 0.063-1.652c0.239-0.521 0.676-0.925 1.213-1.123s1.132-0.176 1.652 0.063l0.088 0.041c0.328 0.142 0.692 0.181 1.043 0.114s0.674-0.239 0.926-0.492c0.267-0.236 0.457-0.546 0.545-0.891s0.072-0.708-0.048-1.044l-0.032-0.086c-0.099-0.266-0.144-0.549-0.133-0.833s0.077-0.562 0.196-0.82c0.119-0.258 0.287-0.49 0.495-0.683s0.453-0.343 0.719-0.441c0.266-0.099 0.549-0.144 0.833-0.133s0.562 0.077 0.82 0.196c0.258 0.119 0.49 0.287 0.683 0.495s0.343 0.453 0.441 0.719l0.032 0.086c0.127 0.333 0.351 0.619 0.643 0.824s0.638 0.316 0.994 0.322l0.078 0.036c0.347 0.009 0.69-0.084 0.985-0.267s0.531-0.449 0.677-0.764l0.077-0.167c0.239-0.521 0.676-0.925 1.213-1.123s1.132-0.176 1.652 0.063c0.521 0.239 0.925 0.676 1.123 1.213s0.176 1.132-0.063 1.652l-0.041 0.088c-0.144 0.316-0.192 0.668-0.139 1.011s0.206 0.664 0.439 0.922c0.236 0.267 0.546 0.457 0.891 0.545s0.708 0.072 1.044-0.048l0.086-0.032c0.266-0.099 0.549-0.144 0.833-0.133s0.562 0.077 0.82 0.196c0.258 0.119 0.49 0.287 0.683 0.495s0.343 0.453 0.441 0.719c0.099 0.266 0.144 0.549 0.133 0.833s-0.077 0.562-0.196 0.82c-0.119 0.258-0.287 0.49-0.495 0.683s-0.453 0.343-0.719 0.441l-0.086 0.032c-0.333 0.127-0.619 0.351-0.824 0.643s-0.316 0.638-0.322 0.994l-0.036 0.078c-0.009 0.347 0.084 0.69 0.267 0.985s0.449 0.531 0.764 0.677l0.167 0.077c0.521 0.239 0.925 0.676 1.123 1.213s0.176 1.132-0.063 1.652c-0.239 0.521-0.676 0.925-1.213 1.123s-1.132 0.176-1.652-0.063l-0.088-0.041c-0.316-0.144-0.668-0.192-1.011-0.139s-0.664 0.206-0.922 0.439z"></path>
</symbol>
<symbol id="icon-Group-2" viewBox="0 0 32 32">
<path fill="none" stroke="#00a8a8" style="stroke: var(--color3, #00a8a8)" stroke-linejoin="round" stroke-linecap="round" stroke-miterlimit="4" stroke-width="1.2506" d="M16.037 19.767c2.078 0 3.762-1.684 3.762-3.762s-1.684-3.762-3.762-3.762c-2.078 0-3.762 1.684-3.762 3.762s1.684 3.762 3.762 3.762z"></path>
<path fill="none" stroke="#00a8a8" style="stroke: var(--color3, #00a8a8)" stroke-linejoin="round" stroke-linecap="round" stroke-miterlimit="4" stroke-width="1.2506" d="M25.316 19.767c-0.167 0.378-0.217 0.798-0.143 1.204s0.268 0.782 0.557 1.078l0.075 0.075c0.233 0.233 0.418 0.509 0.544 0.814s0.191 0.631 0.191 0.96c0 0.33-0.065 0.656-0.191 0.96s-0.311 0.581-0.544 0.814c-0.233 0.233-0.509 0.418-0.814 0.544s-0.631 0.191-0.96 0.191c-0.33 0-0.656-0.065-0.96-0.191s-0.581-0.311-0.814-0.544l-0.075-0.075c-0.296-0.289-0.671-0.483-1.078-0.557s-0.826-0.024-1.204 0.143c-0.371 0.159-0.687 0.423-0.91 0.759s-0.342 0.731-0.344 1.134v0.213c0 0.665-0.264 1.303-0.735 1.773s-1.108 0.735-1.773 0.735-1.303-0.264-1.773-0.735c-0.47-0.47-0.735-1.108-0.735-1.773v-0.113c-0.010-0.415-0.144-0.818-0.386-1.155s-0.579-0.595-0.969-0.738c-0.378-0.167-0.798-0.217-1.204-0.143s-0.782 0.268-1.078 0.557l-0.075 0.075c-0.233 0.233-0.509 0.418-0.814 0.544s-0.631 0.191-0.96 0.191c-0.33 0-0.656-0.065-0.96-0.191s-0.581-0.311-0.814-0.544c-0.233-0.233-0.418-0.51-0.544-0.814s-0.191-0.631-0.191-0.96 0.065-0.656 0.191-0.96c0.126-0.304 0.311-0.581 0.544-0.814l0.075-0.075c0.289-0.296 0.483-0.671 0.557-1.078s0.024-0.826-0.143-1.205c-0.159-0.371-0.423-0.687-0.759-0.91s-0.731-0.342-1.134-0.344h-0.213c-0.665 0-1.303-0.264-1.773-0.735s-0.735-1.108-0.735-1.773c0-0.665 0.264-1.303 0.735-1.773s1.108-0.735 1.773-0.735h0.113c0.415-0.010 0.818-0.144 1.155-0.386s0.595-0.579 0.738-0.969c0.167-0.378 0.217-0.798 0.143-1.205s-0.268-0.782-0.557-1.078l-0.075-0.075c-0.233-0.233-0.418-0.509-0.544-0.814s-0.191-0.631-0.191-0.96 0.065-0.656 0.191-0.96c0.126-0.304 0.311-0.581 0.544-0.814s0.509-0.418 0.814-0.544c0.304-0.126 0.631-0.191 0.96-0.191s0.656 0.065 0.96 0.191c0.304 0.126 0.581 0.311 0.814 0.544l0.075 0.075c0.296 0.289 0.671 0.483 1.078 0.557s0.826 0.024 1.205-0.143h0.1c0.371-0.159 0.687-0.423 0.91-0.759s0.342-0.731 0.344-1.134v-0.213c0-0.665 0.264-1.303 0.735-1.773s1.108-0.735 1.773-0.735 1.303 0.264 1.773 0.735c0.47 0.47 0.735 1.108 0.735 1.773v0.113c0.002 0.404 0.121 0.798 0.344 1.134s0.539 0.6 0.91 0.759c0.378 0.167 0.798 0.217 1.205 0.143s0.782-0.268 1.078-0.557l0.075-0.075c0.233-0.233 0.509-0.418 0.814-0.544s0.631-0.191 0.96-0.191 0.656 0.065 0.96 0.191c0.304 0.126 0.581 0.311 0.814 0.544s0.418 0.51 0.544 0.814 0.191 0.631 0.191 0.96c0 0.33-0.065 0.656-0.191 0.96s-0.311 0.581-0.544 0.814l-0.075 0.075c-0.289 0.296-0.483 0.671-0.557 1.078s-0.024 0.826 0.143 1.204v0.1c0.159 0.371 0.423 0.687 0.759 0.91s0.731 0.342 1.134 0.344h0.213c0.665 0 1.303 0.264 1.773 0.735s0.735 1.108 0.735 1.773-0.264 1.303-0.735 1.773c-0.47 0.47-1.108 0.735-1.773 0.735h-0.113c-0.404 0.002-0.798 0.121-1.134 0.344s-0.6 0.539-0.759 0.91z"></path>
<path fill="none" stroke="#33e9e9" style="stroke: var(--color2, #33e9e9)" stroke-linejoin="round" stroke-linecap="round" stroke-miterlimit="4" stroke-width="0.5885" d="M16.037 18.835c2.078 0 3.762-1.684 3.762-3.762s-1.684-3.762-3.762-3.762c-2.078 0-3.762 1.684-3.762 3.762s1.684 3.762 3.762 3.762z"></path>
<path fill="none" stroke="#33e9e9" style="stroke: var(--color2, #33e9e9)" stroke-linejoin="round" stroke-linecap="round" stroke-miterlimit="4" stroke-width="0.5885" d="M25.316 18.835c-0.167 0.378-0.217 0.798-0.143 1.204s0.268 0.782 0.557 1.078l0.075 0.075c0.233 0.233 0.418 0.509 0.544 0.814s0.191 0.631 0.191 0.96-0.065 0.656-0.191 0.96c-0.126 0.304-0.311 0.581-0.544 0.814s-0.509 0.418-0.814 0.544c-0.304 0.126-0.631 0.191-0.96 0.191s-0.656-0.065-0.96-0.191c-0.304-0.126-0.581-0.311-0.814-0.544l-0.075-0.075c-0.296-0.289-0.671-0.483-1.078-0.557s-0.826-0.024-1.205 0.143c-0.371 0.159-0.687 0.423-0.91 0.759s-0.342 0.731-0.344 1.134v0.213c0 0.665-0.264 1.303-0.735 1.773s-1.108 0.735-1.773 0.735-1.303-0.264-1.773-0.735c-0.47-0.47-0.735-1.108-0.735-1.773v-0.113c-0.010-0.415-0.144-0.818-0.386-1.155s-0.579-0.595-0.969-0.738c-0.378-0.167-0.798-0.217-1.205-0.143s-0.782 0.268-1.078 0.557l-0.075 0.075c-0.233 0.233-0.509 0.418-0.814 0.544s-0.631 0.191-0.96 0.191-0.656-0.065-0.96-0.191c-0.304-0.126-0.581-0.311-0.814-0.544s-0.418-0.509-0.544-0.814-0.191-0.631-0.191-0.96c0-0.33 0.065-0.656 0.191-0.96s0.311-0.581 0.544-0.814l0.075-0.075c0.289-0.296 0.483-0.671 0.557-1.078s0.024-0.826-0.143-1.204c-0.159-0.371-0.423-0.687-0.759-0.91s-0.731-0.342-1.134-0.344h-0.213c-0.665 0-1.303-0.264-1.773-0.735s-0.735-1.108-0.735-1.773c0-0.665 0.264-1.303 0.735-1.773s1.108-0.735 1.773-0.735h0.113c0.415-0.010 0.818-0.144 1.155-0.386s0.595-0.579 0.738-0.969c0.167-0.378 0.217-0.798 0.143-1.204s-0.268-0.782-0.557-1.078l-0.075-0.075c-0.233-0.233-0.418-0.509-0.544-0.814s-0.191-0.631-0.191-0.96 0.065-0.656 0.191-0.96c0.126-0.304 0.311-0.581 0.544-0.814s0.51-0.418 0.814-0.544c0.304-0.126 0.631-0.191 0.96-0.191s0.656 0.065 0.96 0.191c0.304 0.126 0.581 0.311 0.814 0.544l0.075 0.075c0.296 0.289 0.671 0.483 1.078 0.557s0.826 0.024 1.204-0.143h0.1c0.371-0.159 0.687-0.423 0.91-0.759s0.342-0.731 0.344-1.134v-0.213c0-0.665 0.264-1.303 0.735-1.773s1.108-0.735 1.773-0.735 1.303 0.264 1.773 0.735c0.47 0.47 0.735 1.108 0.735 1.773v0.113c0.002 0.403 0.121 0.798 0.344 1.134s0.539 0.6 0.91 0.759c0.378 0.167 0.798 0.217 1.204 0.143s0.782-0.268 1.078-0.557l0.075-0.075c0.233-0.233 0.509-0.418 0.814-0.544s0.631-0.191 0.96-0.191c0.33 0 0.656 0.065 0.96 0.191s0.581 0.311 0.814 0.544c0.233 0.233 0.418 0.51 0.544 0.814s0.191 0.631 0.191 0.96c0 0.33-0.065 0.656-0.191 0.96s-0.311 0.581-0.544 0.814l-0.075 0.075c-0.289 0.296-0.483 0.671-0.557 1.078s-0.024 0.826 0.143 1.204v0.1c0.159 0.371 0.423 0.687 0.759 0.91s0.731 0.342 1.134 0.344h0.213c0.665 0 1.303 0.264 1.773 0.735s0.735 1.108 0.735 1.773-0.264 1.303-0.735 1.773c-0.47 0.47-1.108 0.735-1.773 0.735h-0.113c-0.404 0.002-0.798 0.121-1.134 0.344s-0.6 0.539-0.759 0.91z"></path>
</symbol>
<symbol id="icon-Group-1" viewBox="0 0 24 34">
<path fill="none" stroke="#00a8a8" style="stroke: var(--color3, #00a8a8)" stroke-linejoin="round" stroke-linecap="round" stroke-miterlimit="4" stroke-width="0.5986" d="M8.61 22.925l8.057-0.090M10.005 27.514l5.371-0.060M16.735 18.23c0.229-1.131 0.85-2.013 1.861-2.899 0.643-0.519 1.15-1.148 1.49-1.846s0.503-1.45 0.479-2.205c-0.021-1.832-0.889-3.579-2.415-4.857s-3.583-1.983-5.72-1.959c-2.137 0.024-4.178 0.774-5.674 2.087s-2.325 3.078-2.305 4.91c0.013 1.151 0.338 2.563 2.060 4.006 0.981 0.751 1.655 1.752 1.926 2.856"></path>
<path fill="none" stroke="#00a8a8" style="stroke: var(--color3, #00a8a8)" stroke-linejoin="round" stroke-linecap="round" stroke-miterlimit="4" stroke-width="0.7827" d="M8.61 22.925l8.057-0.090M10.005 27.514l5.371-0.060M16.735 18.23c0.229-1.131 0.85-2.013 1.861-2.899 0.643-0.519 1.15-1.148 1.49-1.846s0.503-1.45 0.479-2.205c-0.021-1.832-0.889-3.579-2.415-4.857s-3.583-1.983-5.72-1.959c-2.137 0.024-4.178 0.774-5.674 2.087s-2.325 3.078-2.305 4.91c0.013 1.151 0.338 2.563 2.060 4.006 0.981 0.751 1.655 1.752 1.926 2.856"></path>
<path fill="none" stroke="#33e9c6" style="stroke: var(--color4, #33e9c6)" stroke-linejoin="round" stroke-linecap="round" stroke-miterlimit="4" stroke-width="0.5986" d="M8.61 22.925l8.057-0.090M10.005 27.514l5.371-0.060M16.735 18.23c0.229-1.131 0.85-2.013 1.861-2.899 0.643-0.519 1.15-1.148 1.49-1.846s0.503-1.45 0.479-2.205c-0.021-1.832-0.889-3.579-2.415-4.857s-3.583-1.983-5.72-1.959c-2.137 0.024-4.178 0.774-5.674 2.087s-2.325 3.078-2.305 4.91c0.013 1.151 0.338 2.563 2.060 4.006 0.981 0.751 1.655 1.752 1.926 2.856"></path>
<path fill="none" stroke="#33e9e9" style="stroke: var(--color2, #33e9e9)" stroke-linejoin="round" stroke-linecap="round" stroke-miterlimit="4" stroke-width="0.3683" d="M8.61 22.925l8.057-0.090M10.005 27.514l5.371-0.060M16.735 18.23c0.229-1.131 0.85-2.013 1.861-2.899 0.643-0.519 1.15-1.148 1.49-1.846s0.503-1.45 0.479-2.205c-0.021-1.832-0.889-3.579-2.415-4.857s-3.583-1.983-5.72-1.959c-2.137 0.024-4.178 0.774-5.674 2.087s-2.325 3.078-2.305 4.91c0.013 1.151 0.338 2.563 2.060 4.006 0.981 0.751 1.655 1.752 1.926 2.856"></path>
</symbol>
<symbol id="icon-Vector-1" viewBox="0 0 35 32">
<path fill="none" stroke="#33e9e9" style="stroke: var(--color2, #33e9e9)" stroke-linejoin="round" stroke-linecap="round" stroke-miterlimit="4" stroke-width="1.6842" d="M13.942 0.842h-13.099v15.158h13.099v-15.158z"></path>
<path fill="none" stroke="#33e9e9" style="stroke: var(--color2, #33e9e9)" stroke-linejoin="round" stroke-linecap="round" stroke-miterlimit="4" stroke-width="1.6842" d="M34.526 0.842h-13.099v8.421h13.099v-8.421z"></path>
<path fill="none" stroke="#33e9e9" style="stroke: var(--color2, #33e9e9)" stroke-linejoin="round" stroke-linecap="round" stroke-miterlimit="4" stroke-width="1.6842" d="M34.526 16h-13.099v15.158h13.099v-15.158z"></path>
<path fill="none" stroke="#33e9e9" style="stroke: var(--color2, #33e9e9)" stroke-linejoin="round" stroke-linecap="round" stroke-miterlimit="4" stroke-width="1.6842" d="M13.942 22.737h-13.099v8.421h13.099v-8.421z"></path>
</symbol>
<symbol id="icon-Group" viewBox="0 0 33 32">
<path fill="none" stroke="#00a8a8" style="stroke: var(--color3, #00a8a8)" stroke-linejoin="round" stroke-linecap="round" stroke-miterlimit="4" stroke-width="1.2271" d="M11.164 26.466h10.394M16.361 21.215v5.251M5.967 2.836h20.788c1.435 0 2.599 1.176 2.599 2.626v13.128c0 1.45-1.163 2.626-2.599 2.626h-20.788c-1.435 0-2.599-1.176-2.599-2.626v-13.128c0-1.45 1.163-2.626 2.599-2.626z"></path>
<path fill="none" stroke="#33e9c6" style="stroke: var(--color4, #33e9c6)" stroke-linejoin="round" stroke-linecap="round" stroke-miterlimit="4" stroke-width="0.9383" d="M11.164 26.466h10.394M16.361 21.215v5.251M5.967 2.836h20.788c1.435 0 2.599 1.176 2.599 2.626v13.128c0 1.45-1.163 2.626-2.599 2.626h-20.788c-1.435 0-2.599-1.176-2.599-2.626v-13.128c0-1.45 1.163-2.626 2.599-2.626z"></path>
<path fill="none" stroke="#33e9e9" style="stroke: var(--color2, #33e9e9)" stroke-linejoin="round" stroke-linecap="round" stroke-miterlimit="4" stroke-width="0.5774" d="M11.164 26.466h10.394M16.361 21.215v5.251M5.967 2.836h20.788c1.435 0 2.599 1.176 2.599 2.626v13.128c0 1.45-1.163 2.626-2.599 2.626h-20.788c-1.435 0-2.599-1.176-2.599-2.626v-13.128c0-1.45 1.163-2.626 2.599-2.626z"></path>
</symbol>
<symbol id="icon-Polygon-3" viewBox="0 0 75 32">
<path fill="#fe2198" style="fill: var(--color5, #fe2198)" stroke-linejoin="miter" stroke-linecap="butt" stroke-miterlimit="4" stroke-width="3.7647" stroke="#000" d="M37.647 29.613l-35.277-27.496h70.554l-35.277 27.496z"></path>
</symbol>
<symbol id="icon-Group-73" viewBox="0 0 32 32">
<path fill="#000" style="fill: var(--color6, #000); stroke: var(--color7, #ff008a)" stroke="#ff008a" stroke-linejoin="miter" stroke-linecap="butt" stroke-miterlimit="4" stroke-width="1.4382" d="M31.281 16c0 8.439-6.841 15.281-15.281 15.281s-15.281-6.841-15.281-15.281c0-8.439 6.841-15.281 15.281-15.281s15.281 6.841 15.281 15.281z"></path>
<path fill="#fe2198" style="fill: var(--color5, #fe2198); stroke: var(--color5, #fe2198)" stroke="#fe2198" stroke-linejoin="miter" stroke-linecap="butt" stroke-miterlimit="4" stroke-width="1.4382" d="M22.937 16.18l-10.443 5.644v-11.289l10.443 5.644z"></path>
</symbol>
<symbol id="icon-Polygon-9" viewBox="0 0 14 32">
<path fill="#fe2198" style="fill: var(--color1, #fe2198)" stroke-linejoin="miter" stroke-linecap="butt" stroke-miterlimit="4" stroke-width="1.6" stroke="#000" d="M12.586 16l-11.686 14.993v-29.986l11.686 14.993z"></path>
</symbol>
<symbol id="icon-facebook" viewBox="0 0 32 32">
<path  d="M21.329 5.313h2.921v-5.088c-0.504-0.069-2.237-0.225-4.256-0.225-4.212 0-7.097 2.649-7.097 7.519v4.481h-4.648v5.688h4.648v14.312h5.699v-14.311h4.46l0.708-5.688h-5.169v-3.919c0.001-1.644 0.444-2.769 2.735-2.769z"></path>
</symbol>
<symbol id="icon-twitter" viewBox="0 0 32 32">
<path  d="M32 6.078c-1.19 0.522-2.458 0.868-3.78 1.036 1.36-0.812 2.398-2.088 2.886-3.626-1.268 0.756-2.668 1.29-4.16 1.588-1.204-1.282-2.92-2.076-4.792-2.076-3.632 0-6.556 2.948-6.556 6.562 0 0.52 0.044 1.020 0.152 1.496-5.454-0.266-10.28-2.88-13.522-6.862-0.566 0.982-0.898 2.106-0.898 3.316 0 2.272 1.17 4.286 2.914 5.452-1.054-0.020-2.088-0.326-2.964-0.808 0 0.020 0 0.046 0 0.072 0 3.188 2.274 5.836 5.256 6.446-0.534 0.146-1.116 0.216-1.72 0.216-0.42 0-0.844-0.024-1.242-0.112 0.85 2.598 3.262 4.508 6.13 4.57-2.232 1.746-5.066 2.798-8.134 2.798-0.538 0-1.054-0.024-1.57-0.090 2.906 1.874 6.35 2.944 10.064 2.944 12.072 0 18.672-10 18.672-18.668 0-0.29-0.010-0.57-0.024-0.848 1.302-0.924 2.396-2.078 3.288-3.406z"></path>
</symbol>
<symbol id="icon-instagram" viewBox="0 0 32 32">
<path  d="M31.969 9.408c-0.075-1.7-0.35-2.869-0.744-3.882-0.406-1.075-1.032-2.038-1.851-2.838-0.8-0.813-1.769-1.444-2.832-1.844-1.019-0.394-2.182-0.669-3.882-0.744-1.713-0.081-2.257-0.1-6.601-0.1s-4.888 0.019-6.595 0.094c-1.7 0.075-2.869 0.35-3.882 0.744-1.075 0.406-2.038 1.031-2.838 1.85-0.813 0.8-1.444 1.769-1.844 2.832-0.394 1.019-0.669 2.182-0.744 3.882-0.081 1.713-0.1 2.257-0.1 6.601s0.019 4.888 0.094 6.595c0.075 1.7 0.35 2.869 0.744 3.882 0.406 1.075 1.038 2.038 1.85 2.838 0.8 0.813 1.769 1.444 2.832 1.844 1.019 0.394 2.182 0.669 3.882 0.744 1.706 0.075 2.25 0.094 6.595 0.094s4.888-0.019 6.595-0.094c1.7-0.075 2.869-0.35 3.882-0.744 2.151-0.832 3.851-2.532 4.682-4.682 0.394-1.019 0.669-2.182 0.744-3.882 0.075-1.707 0.094-2.251 0.094-6.595s-0.006-4.888-0.081-6.595zM29.087 22.473c-0.069 1.563-0.331 2.407-0.55 2.969-0.538 1.394-1.644 2.5-3.038 3.038-0.563 0.219-1.413 0.481-2.969 0.55-1.688 0.075-2.194 0.094-6.464 0.094s-4.782-0.019-6.464-0.094c-1.563-0.069-2.407-0.331-2.969-0.55-0.694-0.256-1.325-0.663-1.838-1.194-0.531-0.519-0.938-1.144-1.194-1.838-0.219-0.563-0.481-1.413-0.55-2.969-0.075-1.688-0.094-2.194-0.094-6.464s0.019-4.782 0.094-6.464c0.069-1.563 0.331-2.407 0.55-2.969 0.256-0.694 0.663-1.325 1.2-1.838 0.519-0.531 1.144-0.938 1.838-1.194 0.563-0.219 1.413-0.481 2.969-0.55 1.688-0.075 2.194-0.094 6.464-0.094 4.276 0 4.782 0.019 6.464 0.094 1.563 0.069 2.407 0.331 2.969 0.55 0.694 0.256 1.325 0.662 1.838 1.194 0.531 0.519 0.938 1.144 1.194 1.838 0.219 0.563 0.481 1.413 0.55 2.969 0.075 1.688 0.094 2.194 0.094 6.464s-0.019 4.77-0.094 6.458z"></path>
<path  d="M16.059 7.783c-4.538 0-8.22 3.682-8.22 8.22s3.682 8.22 8.22 8.22c4.539 0 8.22-3.682 8.22-8.22s-3.682-8.22-8.22-8.22zM16.059 21.335c-2.944 0-5.332-2.388-5.332-5.332s2.388-5.332 5.332-5.332c2.944 0 5.332 2.388 5.332 5.332s-2.388 5.332-5.332 5.332z"></path>
<path  d="M26.524 7.458c0 1.060-0.859 1.919-1.919 1.919s-1.919-0.859-1.919-1.919c0-1.060 0.859-1.919 1.919-1.919s1.919 0.859 1.919 1.919z"></path>
</symbol>
<svg  xmlns="http://www.w3.org/2000/svg" id="youtube"  viewBox="0 0 16 16" ><path d="M 8 2 C 5.960938 2 4.15625 2.210938 3.058594 2.375 C 2.160156 2.507813 1.445313 3.210938 1.28125 4.113281 C 1.140625 4.902344 1 6.054688 1 7.5 C 1 8.945313 1.140625 10.097656 1.28125 10.886719 C 1.445313 11.789063 2.160156 12.488281 3.058594 12.625 C 4.160156 12.789063 5.972656 13 8 13 C 10.027344 13 11.835938 12.789063 12.9375 12.625 L 12.941406 12.625 C 13.839844 12.492188 14.554688 11.789063 14.71875 10.886719 C 14.859375 10.09375 15 8.941406 15 7.5 C 15 6.054688 14.859375 4.902344 14.714844 4.113281 C 14.554688 3.210938 13.839844 2.507813 12.941406 2.375 C 11.84375 2.210938 10.039063 2 8 2 Z M 8 3 C 9.96875 3 11.730469 3.203125 12.792969 3.363281 C 13.261719 3.433594 13.640625 3.800781 13.730469 4.289063 C 13.863281 5.027344 14 6.121094 14 7.5 C 14 8.878906 13.863281 9.972656 13.734375 10.707031 C 13.644531 11.199219 13.265625 11.566406 12.792969 11.636719 C 11.722656 11.792969 9.957031 12 8 12 C 6.042969 12 4.273438 11.792969 3.207031 11.636719 C 2.738281 11.566406 2.355469 11.199219 2.265625 10.707031 C 2.136719 9.96875 2 8.878906 2 7.5 C 2 6.117188 2.136719 5.027344 2.265625 4.289063 C 2.355469 3.800781 2.734375 3.433594 3.203125 3.367188 L 3.207031 3.367188 C 4.269531 3.207031 6.03125 3 8 3 Z M 6 5 L 6 10 L 11 7.5 Z"/></svg>
<svg xmlns="http://www.w3.org/2000/svg" x="0px" y="0px"

viewBox="0 0 16 16"
style=" fill:#FFF;"><path d="M 8 2 C 5.960938 2 4.15625 2.210938 3.058594 2.375 C 2.160156 2.507813 1.445313 3.210938 1.28125 4.113281 C 1.140625 4.902344 1 6.054688 1 7.5 C 1 8.945313 1.140625 10.097656 1.28125 10.886719 C 1.445313 11.789063 2.160156 12.488281 3.058594 12.625 C 4.160156 12.789063 5.972656 13 8 13 C 10.027344 13 11.835938 12.789063 12.9375 12.625 L 12.941406 12.625 C 13.839844 12.492188 14.554688 11.789063 14.71875 10.886719 C 14.859375 10.09375 15 8.941406 15 7.5 C 15 6.054688 14.859375 4.902344 14.714844 4.113281 C 14.554688 3.210938 13.839844 2.507813 12.941406 2.375 C 11.84375 2.210938 10.039063 2 8 2 Z M 8 3 C 9.96875 3 11.730469 3.203125 12.792969 3.363281 C 13.261719 3.433594 13.640625 3.800781 13.730469 4.289063 C 13.863281 5.027344 14 6.121094 14 7.5 C 14 8.878906 13.863281 9.972656 13.734375 10.707031 C 13.644531 11.199219 13.265625 11.566406 12.792969 11.636719 C 11.722656 11.792969 9.957031 12 8 12 C 6.042969 12 4.273438 11.792969 3.207031 11.636719 C 2.738281 11.566406 2.355469 11.199219 2.265625 10.707031 C 2.136719 9.96875 2 8.878906 2 7.5 C 2 6.117188 2.136719 5.027344 2.265625 4.289063 C 2.355469 3.800781 2.734375 3.433594 3.203125 3.367188 L 3.207031 3.367188 C 4.269531 3.207031 6.03125 3 8 3 Z M 6 5 L 6 10 L 11 7.5 Z"></path></svg>


</defs>
</svg>

