<svg width="42" height="32" viewBox="0 0 42 32" fill="none" xmlns="http://www.w3.org/2000/svg">
<g id="youTube">
<path d="M40.1626 5.69599C39.9467 4.77505 39.5068 3.93125 38.8875 3.24982C38.2682 2.56838 37.4914 2.07345 36.6356 1.81501C33.5084 1 21 1 21 1C21 1 8.49156 1 5.36445 1.89263C4.50858 2.15107 3.73177 2.646 3.11247 3.32744C2.49317 4.00887 2.05333 4.85267 1.83736 5.77361C1.26505 9.16085 0.985105 12.597 1.00104 16.0388C0.980639 19.5066 1.2606 22.9689 1.83736 26.3816C2.07545 27.274 2.52515 28.0857 3.14301 28.7383C3.76086 29.391 4.52598 29.8625 5.36445 30.1074C8.49156 31 21 31 21 31C21 31 33.5084 31 36.6356 30.1074C37.4914 29.8489 38.2682 29.354 38.8875 28.6726C39.5068 27.9911 39.9467 27.1473 40.1626 26.2264C40.7305 22.8647 41.0105 19.4547 40.999 16.0388C41.0194 12.5711 40.7394 9.10873 40.1626 5.69599Z" stroke="white" stroke-opacity="0.6" stroke-width="2" stroke-linecap="round" stroke-linejoin="round"/>
<path d="M16.9093 22.3842L27.3633 16.0388L16.9093 9.6934V22.3842Z" stroke="white" stroke-opacity="0.6" stroke-width="2" stroke-linecap="round" stroke-linejoin="round"/>
</g>
</svg>
